<?xml version="1.0" standalone="no"?>
<!DOCTYPE svg PUBLIC "-//W3C//DTD SVG 20010904//EN"
 "http://www.w3.org/TR/2001/REC-SVG-20010904/DTD/svg10.dtd">
<svg version="1.0" xmlns="http://www.w3.org/2000/svg"
 width="300.000000pt" height="300.000000pt" viewBox="0 0 300.000000 300.000000"
 preserveAspectRatio="xMidYMid meet">
<metadata>
Created by potrace 1.10, written by Peter Selinger 2001-2011
</metadata>
<g transform="translate(0.000000,300.000000) scale(0.100000,-0.100000)"
fill="#000000" stroke="none">
<path d="M1692 2367 c-10 -12 -27 -43 -37 -69 -10 -27 -22 -48 -27 -48 -5 0
-7 -4 -4 -9 4 -5 -7 -38 -23 -73 -16 -34 -38 -84 -49 -110 -19 -43 -42 -64
-42 -38 0 9 -41 104 -76 174 -8 16 -14 33 -14 38 0 12 -41 47 -55 48 -16 0
-70 -89 -91 -150 -10 -30 -21 -57 -24 -60 -3 -3 -6 -9 -7 -15 -5 -22 -48 -140
-53 -145 -3 -3 -7 -14 -8 -25 -2 -11 -7 -24 -11 -30 -5 -5 -29 -64 -56 -130
-69 -175 -68 -174 -80 -168 -5 4 -7 3 -3 -2 18 -20 -60 -113 -113 -135 -39
-16 -37 -34 2 -26 82 16 120 74 228 341 44 110 112 276 150 370 l69 169 16
-39 c46 -110 140 -324 142 -322 1 1 41 99 89 217 49 118 97 222 108 231 16 13
17 17 4 22 -8 3 -23 -4 -35 -16z"/>
<path d="M1720 2308 c-50 -120 -169 -409 -265 -643 -371 -909 -420 -1025 -438
-1025 -14 0 -16 4 -8 18 8 14 268 645 371 899 l33 81 -73 172 -73 171 -68
-168 -67 -168 111 -5 c64 -3 112 -9 114 -16 2 -7 -35 -9 -116 -6 l-120 4 -7
-28 c-21 -83 7 -164 67 -191 21 -10 39 -20 39 -23 0 -3 -69 -5 -154 -5 -85 0
-158 -3 -162 -7 -17 -18 14 -23 139 -23 200 0 222 13 145 87 -36 35 -42 46
-46 92 -5 62 -6 62 113 65 43 1 83 5 87 7 4 3 8 1 8 -5 0 -5 3 -17 7 -27 4
-10 2 -15 -4 -11 -5 3 -10 0 -10 -9 0 -13 -12 -44 -65 -160 -10 -22 -18 -46
-18 -53 0 -7 -4 -10 -9 -7 -5 4 -7 -4 -3 -16 4 -16 2 -19 -8 -13 -9 6 -12 4
-8 -7 4 -8 -7 -39 -23 -68 -16 -30 -31 -63 -33 -74 -2 -12 -13 -41 -25 -66
-33 -72 -101 -238 -101 -247 0 -5 -5 -14 -11 -20 -18 -18 -60 -154 -54 -174 6
-18 11 -21 45 -23 14 -1 50 34 50 49 0 3 11 31 25 60 13 30 27 66 31 80 3 14
10 28 15 30 4 3 5 13 2 22 -4 9 -2 14 3 10 6 -3 19 20 29 51 10 31 22 62 25
67 11 16 43 103 40 111 -1 4 2 10 7 13 5 3 20 35 33 71 21 60 40 105 75 185 7
17 16 41 20 55 4 14 17 45 28 70 11 25 21 48 21 51 1 4 16 38 33 75 48 101
123 282 141 339 9 28 21 53 27 57 6 5 6 8 0 8 -7 0 -7 3 0 8 6 4 20 34 32 67
12 33 36 96 52 140 17 44 33 90 35 103 8 40 -11 23 -34 -30z m-402 -533 c21
-50 37 -95 35 -101 -3 -10 -161 -8 -172 2 -2 2 13 45 33 97 20 51 36 99 36
107 0 30 29 -15 68 -105z"/>
<path d="M1620 1618 c-19 -31 -110 -246 -141 -333 -13 -38 -27 -71 -31 -73 -5
-2 -8 -9 -8 -17 0 -11 -20 -59 -71 -172 -10 -23 -19 -46 -19 -51 0 -15 -52
-105 -77 -132 -13 -14 -23 -27 -23 -30 0 -3 -17 -14 -37 -25 -43 -22 -53 -33
-53 -57 0 -27 53 -37 188 -35 170 3 199 23 127 89 -36 34 -46 56 -50 119 l-3
37 100 1 c75 2 104 6 116 17 21 22 35 5 66 -79 28 -76 28 -77 -31 -112 -38
-22 -40 -30 -16 -53 14 -15 43 -17 224 -17 192 0 208 1 229 20 l22 20 -29 22
c-55 45 -69 63 -97 130 -16 38 -47 106 -69 153 -21 47 -47 105 -57 130 -10 25
-45 104 -78 177 -33 72 -58 134 -56 137 2 3 1 4 -3 1 -3 -3 -15 19 -25 48 -33
94 -70 127 -98 85z m58 -57 c73 -191 335 -779 354 -794 12 -10 34 -21 50 -24
15 -3 28 -8 28 -12 0 -7 -450 -4 -458 4 -3 3 2 5 11 5 32 0 96 32 102 51 4 11
-34 114 -101 271 -59 139 -110 256 -114 260 -3 4 -35 -65 -70 -155 -36 -89
-66 -165 -68 -169 -2 -5 46 -8 107 -8 62 0 112 -4 116 -10 4 -6 -36 -10 -114
-10 l-120 0 -11 -40 c-19 -72 25 -169 85 -184 58 -15 15 -21 -140 -21 -91 0
-165 3 -165 6 0 3 17 11 38 17 21 6 47 20 59 31 60 57 71 80 326 714 28 70 54
127 57 127 3 0 15 -27 28 -59z m-83 -426 c20 -49 41 -95 46 -102 15 -17 3 -19
-94 -15 l-87 3 5 31 c3 17 9 36 13 42 3 6 7 16 8 21 6 32 56 127 64 119 4 -5
25 -49 45 -99z"/>
</g>
</svg>
